<!DOCTYPE svg PUBLIC "-//W3C//DTD SVG 20010904//EN" "http://www.w3.org/TR/2001/REC-SVG-20010904/DTD/svg10.dtd">
<svg version="1.0" xmlns="http://www.w3.org/2000/svg" width="601px" height="238px" viewBox="0 0 6010 2380" preserveAspectRatio="xMidYMid meet">
<g id="layer101" fill="#38197a" stroke="none">
 <path d="M1068 2119 c-92 -86 -261 -139 -462 -144 -92 -2 -111 -5 -123 -21 -35 -48 6 -124 67 -124 105 0 179 -127 152 -258 -6 -30 -26 -79 -44 -108 -29 -49 -35 -54 -77 -60 -69 -9 -80 -13 -97 -38 -31 -49 29 -108 78 -77 11 7 22 11 24 8 2 -2 11 -107 20 -233 19 -275 17 -264 49 -298 26 -28 29 -28 112 -24 93 5 102 0 117 -66 l7 -29 -115 5 c-98 5 -117 3 -129 -11 -9 -10 -18 -67 -25 -156 -6 -77 -14 -148 -18 -158 -6 -17 -7 -17 -20 1 -42 60 -126 10 -102 -59 14 -41 40 -59 95 -66 96 -11 122 33 143 236 5 57 10 105 10 107 0 2 53 4 118 4 160 0 170 11 136 143 -32 125 -63 152 -165 149 -94 -3 -94 -4 -115 266 l-17 221 38 51 c60 81 79 141 79 245 0 104 -20 164 -72 219 l-31 34 92 16 c132 24 210 52 283 102 35 24 68 44 73 44 15 0 41 36 41 58 0 27 -33 62 -59 62 -11 0 -39 -18 -63 -41z"/>
 <path d="M2972 1653 l3 -238 53 -3 c47 -3 52 -1 52 18 l0 21 26 -20 c37 -29 112 -29 149 1 82 64 71 244 -18 298 -39 24 -104 26 -135 4 l-22 -15 0 85 0 86 -55 0 -55 0 2 -237z m203 -8 c19 -18 25 -35 25 -68 0 -72 -45 -105 -93 -66 -50 39 -29 159 28 159 9 0 27 -11 40 -25z"/>
 <path d="M3431 1732 c-59 -29 -76 -63 -76 -147 0 -59 4 -79 21 -102 36 -48 82 -73 136 -73 95 0 148 53 148 148 l0 52 -100 0 c-82 0 -100 3 -100 15 0 28 47 48 98 42 26 -2 55 -8 65 -12 14 -6 17 -1 17 33 0 36 -3 41 -31 51 -49 17 -139 13 -178 -7z m129 -206 c0 -20 -39 -46 -59 -39 -17 6 -41 32 -41 45 0 4 23 8 50 8 37 0 50 -4 50 -14z"/>
 <path d="M3970 1586 l0 -166 55 0 55 0 -2 163 -3 162 -52 3 -53 3 0 -165z"/>
 <path d="M4213 1734 c-73 -36 -104 -152 -61 -233 32 -62 66 -84 135 -89 96 -6 151 45 161 150 l5 48 -107 0 c-64 0 -106 4 -106 10 0 6 10 20 21 31 18 18 30 20 73 16 28 -2 59 -8 69 -12 14 -6 17 -1 17 33 0 36 -3 41 -31 51 -46 16 -139 13 -176 -5z m125 -215 c-5 -33 -42 -42 -72 -18 -38 30 -32 39 25 39 46 0 50 -2 47 -21z"/>
 <path d="M4950 1731 c-65 -34 -94 -102 -79 -185 14 -80 72 -128 163 -134 84 -5 106 7 106 58 0 43 -4 46 -46 30 -33 -13 -90 3 -104 30 -16 29 -12 86 8 109 19 23 58 30 110 17 l32 -8 0 41 c0 35 -4 43 -26 51 -42 16 -126 12 -164 -9z"/>
 <path d="M5253 1734 c-101 -50 -107 -226 -11 -297 41 -30 133 -34 175 -8 45 28 63 61 70 125 l6 56 -107 0 c-64 0 -106 4 -106 10 0 6 10 20 21 31 18 18 30 20 73 16 28 -2 59 -8 69 -12 14 -6 17 -1 17 33 0 36 -3 41 -31 51 -46 16 -139 13 -176 -5z m130 -214 c-12 -46 -69 -46 -93 0 -10 19 -7 20 44 20 49 0 54 -2 49 -20z"/>
 <path d="M2290 1515 l0 -225 130 0 130 0 0 45 0 45 -75 0 -75 0 0 45 0 45 70 0 70 0 0 45 0 45 -70 0 -70 0 0 45 0 44 83 3 82 3 3 43 3 42 -140 0 -141 0 0 -225z"/>
 <path d="M2586 1728 c4 -7 27 -41 51 -75 23 -34 43 -65 43 -70 0 -5 -20 -41 -45 -81 -25 -40 -45 -74 -45 -77 0 -3 27 -5 60 -5 l60 0 26 51 26 52 29 -52 29 -51 55 0 c30 0 55 3 55 6 0 3 -21 36 -47 73 -25 36 -46 71 -46 76 0 6 21 42 46 82 26 39 47 74 47 77 0 3 -27 6 -60 6 l-60 0 -26 -52 -26 -51 -26 49 -27 49 -63 3 c-50 2 -62 0 -56 -10z"/>
 <path d="M3712 1578 l3 -163 53 -3 c50 -3 52 -2 52 22 l0 25 25 -24 c15 -16 36 -25 55 -25 29 0 30 1 30 51 0 46 -2 50 -22 49 -13 -1 -31 -2 -41 -1 -28 2 -47 61 -47 151 l0 80 -55 0 -55 0 2 -162z"/>
 <path d="M4500 1575 l0 -165 51 0 c42 0 52 3 56 20 5 20 5 20 30 0 36 -28 104 -27 138 3 33 28 44 79 45 210 l0 97 -55 0 -55 0 0 -84 c0 -106 -8 -144 -32 -157 -14 -8 -25 -6 -44 6 -23 15 -24 20 -24 125 l0 110 -55 0 -55 0 0 -165z"/>
 <path d="M3974 1345 c-13 -20 -15 -31 -6 -49 19 -43 87 -42 111 2 30 56 -70 101 -105 47z"/>
 <path d="M2288 1143 c-14 -3 -18 -15 -18 -50 0 -42 1 -45 23 -38 12 4 45 9 73 12 43 4 54 2 77 -18 14 -13 29 -37 33 -54 l7 -30 -22 19 c-13 12 -41 21 -76 24 -53 4 -56 3 -94 -35 -47 -46 -60 -104 -41 -181 23 -96 119 -149 198 -108 28 15 32 15 32 1 0 -11 12 -15 51 -15 l50 0 -3 189 c-3 174 -5 192 -24 218 -38 51 -90 73 -174 72 -41 -1 -83 -3 -92 -6z m169 -235 c33 -27 26 -119 -12 -144 -33 -22 -64 -9 -82 34 -35 85 29 162 94 110z"/>
 <path d="M1933 995 c-35 -25 -48 -83 -29 -128 17 -43 53 -62 134 -73 29 -3 52 -9 52 -13 -1 -35 -75 -45 -130 -17 l-30 14 0 -43 c0 -42 1 -44 38 -54 54 -16 128 -13 162 4 50 26 60 60 60 195 l0 120 -50 0 c-39 0 -50 -4 -50 -16 0 -13 -5 -12 -26 5 -32 25 -100 28 -131 6z m139 -82 c10 -9 18 -26 18 -38 0 -21 -3 -22 -41 -15 -47 9 -62 25 -48 52 12 23 47 23 71 1z"/>
 <path d="M2721 992 c-59 -29 -76 -63 -76 -147 0 -59 4 -79 21 -102 36 -48 82 -73 136 -73 95 0 148 53 148 148 l0 52 -100 0 c-82 0 -100 3 -100 15 0 28 47 48 98 42 26 -2 55 -8 65 -12 14 -6 17 -1 17 33 0 36 -3 41 -31 51 -49 17 -139 13 -178 -7z m129 -206 c0 -20 -39 -46 -59 -39 -17 6 -41 32 -41 45 0 4 23 8 50 8 37 0 50 -4 50 -14z"/>
 <path d="M3413 994 c-101 -50 -107 -226 -11 -297 41 -30 133 -34 175 -8 45 28 63 61 70 125 l6 56 -107 0 c-64 0 -106 4 -106 10 0 6 10 20 21 31 18 18 30 20 73 16 28 -2 59 -8 69 -12 14 -6 17 -1 17 33 0 36 -3 41 -31 51 -46 16 -139 13 -176 -5z m130 -215 c-11 -43 -70 -42 -93 1 -10 19 -7 20 44 20 50 0 54 -2 49 -21z"/>
 <path d="M3923 989 c-89 -57 -78 -255 17 -304 33 -17 116 -20 125 -5 17 27 25 2 25 -75 l0 -85 55 0 55 0 0 240 0 240 -55 0 c-31 0 -55 -4 -55 -10 0 -6 -13 -4 -30 5 -40 21 -99 19 -137 -6z m131 -69 c41 -15 57 -121 22 -149 -49 -39 -106 -2 -106 69 0 30 6 47 25 65 28 29 26 28 59 15z"/>
 <path d="M1440 775 l0 -225 55 0 55 0 0 90 0 90 85 0 85 0 0 -90 0 -90 55 0 55 0 0 225 0 225 -55 0 -55 0 0 -90 0 -90 -85 0 -85 0 0 90 0 90 -55 0 -55 0 0 -225z"/>
 <path d="M3019 840 l-56 -160 58 0 58 0 16 58 c9 31 21 75 27 97 6 22 14 43 18 47 3 4 19 -40 35 -97 l30 -105 57 0 57 0 -25 68 c-14 37 -41 108 -59 157 l-32 90 -64 3 -64 3 -56 -161z"/>
 <path d="M3700 759 l0 -240 53 3 52 3 3 238 2 237 -55 0 -55 0 0 -241z"/>
 </g>

</svg>